#N canvas 221 303 511 406 10;
#X obj 36 103 soundfiler;
#N canvas 0 0 450 300 (subpatch) 0;
#X array sample 4e+06 float 2;
#X coords 0 1 4e+06 -1 200 140 1;
#X restore 37 137 graph;
#X obj 294 187 tabplay~ sample;
#X obj 292 235 dac~;
#X msg 295 139 bang;
#X msg 36 82 read -resize sawtoot440.aiff sample;
#X obj 36 43 loadbang;
#X connect 2 0 3 0;
#X connect 2 0 3 1;
#X connect 4 0 2 0;
#X connect 5 0 0 0;
#X connect 6 0 5 0;
