#N canvas 275 79 762 517 10;
#X obj 360 469 dac~ 1 2 3 4 5 6;
#X obj 12 149 osc~ 138.81;
#X obj 137 148 osc~ 146.83;
#X obj 282 152 osc~ 164.81;
#X obj 423 152 osc~ 185;
#X obj 532 151 osc~ 207.65;
#X obj 636 154 osc~ 233.08;
#X obj 639 296 *~;
#X obj 534 311 *~;
#X obj 439 312 *~;
#X obj 287 312 *~;
#X obj 150 328 *~;
#X msg 195 225 0 100;
#X msg 330 230 0 100;
#X msg 457 230 0 100;
#X msg 570 232 0 100;
#X msg 689 236 0 100;
#X obj 11 329 *~, f 8;
#X obj 182 271 line~ 0;
#X msg 65 232 0 100;
#X obj 53 272 line~ 0;
#X obj 681 277 line~ 0;
#X obj 560 274 line~ 0;
#X obj 448 274 line~ 0;
#X obj 320 275 line~ 0;
#X obj 268 2 netreceive 13000;
#X obj 198 40 print tcp;
#X obj 270 38 route C D E F# G# A#;
#X floatatom 369 98 5 0 0 0 - - -, f 5;
#X floatatom 182 100 5 0 0 0 - - -, f 5;
#X floatatom 220 97 5 0 0 0 - - -, f 5;
#X floatatom 328 97 5 0 0 0 - - -, f 5;
#X floatatom 414 99 5 0 0 0 - - -, f 5;
#X msg 46 200 \$1 100;
#X msg 180 200 \$1 100;
#X msg 319 204 \$1 100;
#X msg 442 204 \$1 100;
#X msg 558 203 \$1 100;
#X msg 679 206 \$1 100;
#X floatatom 283 97 5 0 0 0 - - -, f 5;
#X connect 1 0 17 0;
#X connect 2 0 11 0;
#X connect 3 0 10 0;
#X connect 4 0 9 0;
#X connect 5 0 8 0;
#X connect 6 0 7 0;
#X connect 7 0 0 5;
#X connect 8 0 0 4;
#X connect 9 0 0 3;
#X connect 10 0 0 2;
#X connect 11 0 0 1;
#X connect 12 0 18 0;
#X connect 13 0 24 0;
#X connect 14 0 23 0;
#X connect 15 0 22 0;
#X connect 16 0 21 0;
#X connect 17 0 0 0;
#X connect 18 0 11 1;
#X connect 19 0 20 0;
#X connect 20 0 17 1;
#X connect 21 0 7 1;
#X connect 22 0 8 1;
#X connect 23 0 9 1;
#X connect 24 0 10 1;
#X connect 25 0 26 0;
#X connect 25 0 27 0;
#X connect 27 0 29 0;
#X connect 27 1 30 0;
#X connect 27 2 39 0;
#X connect 27 3 31 0;
#X connect 27 4 28 0;
#X connect 27 5 32 0;
#X connect 28 0 37 0;
#X connect 29 0 33 0;
#X connect 30 0 34 0;
#X connect 31 0 36 0;
#X connect 32 0 38 0;
#X connect 33 0 20 0;
#X connect 34 0 18 0;
#X connect 35 0 24 0;
#X connect 36 0 23 0;
#X connect 37 0 22 0;
#X connect 38 0 21 0;
#X connect 39 0 35 0;
