#N canvas 93 63 1027 488 10;
#X obj 294 2 netreceive 13000;
#X obj 155 40 print tcp;
#X obj 275 35 route C D E F# G# A#;
#X floatatom -80 157 5 0 0 0 - - -;
#X obj 278 460 dac~ 1;
#X obj -80 236 line~ 0;
#X obj -134 288 *~;
#X msg -80 196 \$1 2000;
#X obj -186 250 readsf~;
#X obj -114 230 bng 15 250 50 0 empty empty empty 17 7 0 10 -262144
-1 -1;
#X msg -179 221 0;
#X obj -186 157 loadbang;
#X msg -186 196 open C.aiff \, 1;
#X floatatom 82 156 5 0 0 0 - - -;
#X obj 82 234 line~ 0;
#X obj 26 289 *~;
#X msg 82 195 \$1 2000;
#X obj -24 249 readsf~;
#X obj 48 229 bng 15 250 50 0 empty empty empty 17 7 0 10 -262144 -1
-1;
#X msg -17 220 0;
#X obj -24 156 loadbang;
#X msg -24 195 open D.aiff \, 1;
#X floatatom 244 156 5 0 0 0 - - -;
#X obj 244 234 line~ 0;
#X obj 188 289 *~;
#X msg 244 195 \$1 2000;
#X obj 138 249 readsf~;
#X obj 210 229 bng 15 250 50 0 empty empty empty 17 7 0 10 -262144
-1 -1;
#X msg 145 220 0;
#X obj 138 156 loadbang;
#X msg 138 195 open E.aiff \, 1;
#X floatatom 404 156 5 0 0 0 - - -;
#X obj 404 234 line~ 0;
#X obj 348 289 *~;
#X msg 404 195 \$1 2000;
#X obj 298 249 readsf~;
#X obj 370 229 bng 15 250 50 0 empty empty empty 17 7 0 10 -262144
-1 -1;
#X msg 305 220 0;
#X obj 298 156 loadbang;
#X floatatom 564 156 5 0 0 0 - - -;
#X obj 564 234 line~ 0;
#X obj 508 289 *~;
#X msg 564 195 \$1 2000;
#X obj 457 249 readsf~;
#X obj 529 229 bng 15 250 50 0 empty empty empty 17 7 0 10 -262144
-1 -1;
#X msg 464 220 0;
#X obj 457 156 loadbang;
#X floatatom 723 156 5 0 0 0 - - -;
#X obj 723 234 line~ 0;
#X obj 667 289 *~;
#X msg 723 195 \$1 2000;
#X obj 617 249 readsf~;
#X obj 689 229 bng 15 250 50 0 empty empty empty 17 7 0 10 -262144
-1 -1;
#X msg 624 220 0;
#X obj 617 156 loadbang;
#X msg 298 195 open Fis.aiff \, 1;
#X msg 457 195 open Gis.aiff \, 1;
#X msg 617 195 open Ais.aiff \, 1;
#X connect 0 0 1 0;
#X connect 0 0 2 0;
#X connect 2 0 3 0;
#X connect 2 1 13 0;
#X connect 2 2 22 0;
#X connect 2 3 31 0;
#X connect 2 4 39 0;
#X connect 2 5 47 0;
#X connect 3 0 7 0;
#X connect 5 0 6 1;
#X connect 6 0 4 0;
#X connect 7 0 5 0;
#X connect 8 0 6 0;
#X connect 8 1 9 0;
#X connect 9 0 12 0;
#X connect 10 0 8 0;
#X connect 11 0 12 0;
#X connect 12 0 8 0;
#X connect 13 0 16 0;
#X connect 14 0 15 1;
#X connect 15 0 4 0;
#X connect 16 0 14 0;
#X connect 17 0 15 0;
#X connect 17 1 18 0;
#X connect 18 0 21 0;
#X connect 19 0 17 0;
#X connect 20 0 21 0;
#X connect 21 0 17 0;
#X connect 22 0 25 0;
#X connect 23 0 24 1;
#X connect 24 0 4 0;
#X connect 25 0 23 0;
#X connect 26 0 24 0;
#X connect 26 1 27 0;
#X connect 27 0 30 0;
#X connect 28 0 26 0;
#X connect 29 0 30 0;
#X connect 30 0 26 0;
#X connect 31 0 34 0;
#X connect 32 0 33 1;
#X connect 33 0 4 0;
#X connect 34 0 32 0;
#X connect 35 0 33 0;
#X connect 35 1 36 0;
#X connect 36 0 55 0;
#X connect 37 0 35 0;
#X connect 38 0 55 0;
#X connect 39 0 42 0;
#X connect 40 0 41 1;
#X connect 41 0 4 0;
#X connect 42 0 40 0;
#X connect 43 0 41 0;
#X connect 43 1 44 0;
#X connect 44 0 56 0;
#X connect 45 0 43 0;
#X connect 46 0 56 0;
#X connect 47 0 50 0;
#X connect 48 0 49 1;
#X connect 49 0 4 0;
#X connect 50 0 48 0;
#X connect 51 0 49 0;
#X connect 51 1 52 0;
#X connect 52 0 57 0;
#X connect 53 0 51 0;
#X connect 54 0 57 0;
#X connect 55 0 35 0;
#X connect 56 0 43 0;
#X connect 57 0 51 0;
