#N canvas 441 211 1375 560 10;
#X obj -152 36 print tcp;
#X obj -171 152 dac~ 1 2 3 4 5 6;
#X obj -170 60 route 64 67 62 69 66 71;
#X obj -170 11 netreceive 13001;
#X obj 200 8 loadbang;
#X obj 200 50 delay 100;
#X msg 200 81 \; pd dsp 1;
#X obj 216 28 bng 15 250 50 0 empty empty empty 17 7 0 10 -262144 -1
-1;
#X obj 133 105 looper B;
#X obj 64 105 looper Fis;
#X obj 5 105 looper A;
#X obj -171 105 looper E;
#X obj -112 105 looper G;
#X obj -53 105 looper D;
#N canvas 0 22 450 300 (subpatch) 0;
#X array E 596402 float 2;
#X coords 0 1 596402 -1 200 140 1;
#X restore -171 196 graph;
#N canvas 0 22 450 300 (subpatch) 0;
#X array G 321332 float 2;
#X coords 0 1 321332 -1 200 140 1;
#X restore 41 196 graph;
#N canvas 0 22 450 300 (subpatch) 0;
#X array D 300183 float 2;
#X coords 0 1 300183 -1 200 140 1;
#X restore 250 194 graph;
#N canvas 0 22 450 300 (subpatch) 0;
#X array B 189138 float 2;
#X coords 0 1 189138 -1 200 140 1;
#X restore 252 364 graph;
#N canvas 0 22 450 300 (subpatch) 0;
#X array Fis 330873 float 2;
#X coords 0 1 330873 -1 200 140 1;
#X restore 40 364 graph;
#N canvas 0 22 450 300 (subpatch) 0;
#X array A 169338 float 2;
#X coords 0 1 169338 -1 200 140 1;
#X restore -171 363 graph;
#X connect 2 0 11 0;
#X connect 2 1 12 0;
#X connect 2 2 13 0;
#X connect 2 3 10 0;
#X connect 2 4 9 0;
#X connect 2 5 8 0;
#X connect 3 0 0 0;
#X connect 3 0 2 0;
#X connect 4 0 5 0;
#X connect 5 0 6 0;
#X connect 7 0 5 0;
#X connect 8 0 1 5;
#X connect 9 0 1 4;
#X connect 10 0 1 3;
#X connect 11 0 1 0;
#X connect 12 0 1 1;
#X connect 13 0 1 2;
