#N canvas 413 515 1375 560 10;
#X obj -152 36 print tcp;
#X obj -171 152 dac~ 1 2 3 4 5 6;
#X obj 218 8 loadbang;
#X obj 218 54 delay 100;
#X msg 218 85 \; pd dsp 1;
#X obj 234 32 bng 15 250 50 0 empty empty empty 17 7 0 10 -262144 -1
-1;
#N canvas 0 22 450 300 (subpatch) 0;
#X array Dis 275444 float 2;
#X coords 0 1 275444 -1 200 140 1;
#X restore -171 196 graph;
#N canvas 0 22 450 300 (subpatch) 0;
#X array C 254115 float 2;
#X coords 0 1 254115 -1 200 140 1;
#X restore 41 196 graph;
#N canvas 0 22 450 300 (subpatch) 0;
#X array F 292045 float 2;
#X coords 0 1 292045 -1 200 140 1;
#X restore 250 194 graph;
#N canvas 0 22 450 300 (subpatch) 0;
#X array Gis 274058 float 2;
#X coords 0 1 274058 -1 200 140 1;
#X restore 252 364 graph;
#N canvas 0 22 450 300 (subpatch) 0;
#X array Cis 321116 float 2;
#X coords 0 1 321116 -1 200 140 1;
#X restore 40 364 graph;
#N canvas 0 22 450 300 (subpatch) 0;
#X array Ais 246778 float 2;
#X coords 0 1 246778 -1 200 140 1;
#X restore -171 363 graph;
#X obj -171 105 looper Dis;
#X obj -170 11 netreceive 13000;
#X obj -170 60 route 63 60 65 70 61 68;
#X obj -101 105 looper C;
#X obj -42 105 looper F;
#X obj 16 105 looper Ais;
#X obj 75 105 looper Cis;
#X obj 143 105 looper Gis;
#X connect 2 0 3 0;
#X connect 3 0 4 0;
#X connect 5 0 3 0;
#X connect 12 0 1 0;
#X connect 13 0 0 0;
#X connect 13 0 14 0;
#X connect 14 0 12 0;
#X connect 14 1 15 0;
#X connect 14 2 16 0;
#X connect 14 3 17 0;
#X connect 14 4 18 0;
#X connect 14 5 19 0;
#X connect 15 0 1 1;
#X connect 16 0 1 2;
#X connect 17 0 1 3;
#X connect 18 0 1 4;
#X connect 19 0 1 5;
