#N canvas 1229 369 1375 560 10;
#X obj -152 36 print tcp;
#X obj -170 60 route 64 67 62 69 66 71;
#X obj -170 11 netreceive 13001;
#X obj 200 8 loadbang;
#X obj 200 50 delay 100;
#X msg 200 81 \; pd dsp 1;
#X obj 216 28 bng 15 250 50 0 empty empty empty 17 7 0 10 -262144 -1
-1;
#X obj 133 105 looper B;
#X obj 64 105 looper Fis;
#X obj 5 105 looper A;
#X obj -171 105 looper E;
#X obj -112 105 looper G;
#X obj -53 105 looper D;
#N canvas 0 50 450 300 (subpatch) 0;
#X array E 46566 float 2;
#X coords 0 1 46566 -1 200 140 1;
#X restore -171 196 graph;
#N canvas 0 50 450 300 (subpatch) 0;
#X array G 40021 float 2;
#X coords 0 1 40021 -1 200 140 1;
#X restore 41 196 graph;
#N canvas 0 50 450 300 (subpatch) 0;
#X array D 45966 float 2;
#X coords 0 1 45966 -1 200 140 1;
#X restore 250 194 graph;
#N canvas 0 50 450 300 (subpatch) 0;
#X array B 34191 float 2;
#X coords 0 1 34191 -1 200 140 1;
#X restore 252 364 graph;
#N canvas 0 50 450 300 (subpatch) 0;
#X array Fis 42981 float 2;
#X coords 0 1 42981 -1 200 140 1;
#X restore 40 364 graph;
#N canvas 0 50 450 300 (subpatch) 0;
#X array A 38372 float 2;
#X coords 0 1 38372 -1 200 140 1;
#X restore -171 363 graph;
#X obj 4 167 dac~ 1 2;
#X connect 1 0 10 0;
#X connect 1 1 11 0;
#X connect 1 2 12 0;
#X connect 1 3 9 0;
#X connect 1 4 8 0;
#X connect 1 5 7 0;
#X connect 2 0 0 0;
#X connect 2 0 1 0;
#X connect 3 0 4 0;
#X connect 4 0 5 0;
#X connect 6 0 4 0;
#X connect 7 0 19 0;
#X connect 8 0 19 0;
#X connect 9 0 19 0;
#X connect 10 0 19 0;
#X connect 11 0 19 0;
#X connect 12 0 19 0;
