#N canvas 1411 410 1375 560 10;
#X obj -152 36 print tcp;
#X obj 218 8 loadbang;
#X obj 218 54 delay 100;
#X msg 218 85 \; pd dsp 1;
#X obj 234 32 bng 15 250 50 0 empty empty empty 17 7 0 10 -262144 -1
-1;
#N canvas 0 50 450 300 (subpatch) 0;
#X array Dis 51487 float 2;
#X coords 0 1 51487 -1 200 140 1;
#X restore -171 196 graph;
#N canvas 0 50 450 300 (subpatch) 0;
#X array C 41923 float 2;
#X coords 0 1 41923 -1 200 140 1;
#X restore 41 196 graph;
#N canvas 0 50 450 300 (subpatch) 0;
#X array F 40463 float 2;
#X coords 0 1 40463 -1 200 140 1;
#X restore 250 194 graph;
#N canvas 0 50 450 300 (subpatch) 0;
#X array Gis 37103 float 2;
#X coords 0 1 37103 -1 200 140 1;
#X restore 252 364 graph;
#N canvas 0 50 450 300 (subpatch) 0;
#X array Cis 47929 float 2;
#X coords 0 1 47929 -1 200 140 1;
#X restore 40 364 graph;
#N canvas 0 50 450 300 (subpatch) 0;
#X array Ais 30217 float 2;
#X coords 0 1 30217 -1 200 140 1;
#X restore -171 363 graph;
#X obj -171 105 looper Dis;
#X obj -170 11 netreceive 13000;
#X obj -170 60 route 63 60 65 70 61 68;
#X obj -101 105 looper C;
#X obj -42 105 looper F;
#X obj 13 106 looper Ais;
#X obj 75 105 looper Cis;
#X obj 143 105 looper Gis;
#X obj 24 160 dac~ 1 2;
#X connect 1 0 2 0;
#X connect 2 0 3 0;
#X connect 4 0 2 0;
#X connect 11 0 19 1;
#X connect 12 0 0 0;
#X connect 12 0 13 0;
#X connect 13 0 11 0;
#X connect 13 1 14 0;
#X connect 13 2 15 0;
#X connect 13 3 16 0;
#X connect 13 4 17 0;
#X connect 13 5 18 0;
#X connect 14 0 19 1;
#X connect 15 0 19 1;
#X connect 16 0 19 1;
#X connect 17 0 19 1;
#X connect 18 0 19 1;
