#N canvas 1564 251 791 618 10;
#X floatatom 534 41 5 0 0 0 - - -, f 5;
#X floatatom 534 61 5 0 0 0 - - -, f 5;
#X obj 448 15 notein;
#X floatatom 534 81 5 0 0 0 - - -, f 5;
#X obj 501 190 /, f 4;
#X obj 419 234 *;
#X msg 501 167 1;
#X floatatom 501 213 5 0 0 0 - - -, f 5;
#X obj 501 144 loadbang;
#X text 577 40 note;
#X text 577 60 velocity;
#X text 577 80 channel;
#X obj 116 86 select 48 49 50 51 52 53 54 55 56 57 58 59;
#X msg 11 142 C;
#X msg 53 141 C#;
#X msg 89 143 D;
#X msg 124 143 D#;
#X msg 159 144 E;
#X msg 199 144 F;
#X msg 235 144 F#;
#X msg 270 144 G;
#X msg 305 142 G#;
#X msg 343 143 A;
#X msg 378 143 A#;
#X msg 414 143 B;
#X obj 276 493 netsend;
#X floatatom 276 530 5 0 0 0 - - -, f 5;
#X msg 336 435 connect 192.168.1.140 13000;
#X obj 278 339 list \$1 \$2;
#X obj 422 380 print;
#X msg 278 378 send \$1 \$2;
#X msg 533 168 150;
#X obj 24 500 netsend;
#X floatatom 24 537 5 0 0 0 - - -, f 5;
#X obj 26 346 list \$1 \$2;
#X obj 170 387 print;
#X msg 26 385 send \$1 \$2;
#X msg 84 442 connect 127.0.0.1 13000;
#X connect 2 0 0 0;
#X connect 2 0 12 0;
#X connect 2 1 1 0;
#X connect 2 1 5 0;
#X connect 2 2 3 0;
#X connect 4 0 5 1;
#X connect 4 0 7 0;
#X connect 5 0 28 1;
#X connect 5 0 34 1;
#X connect 6 0 4 0;
#X connect 8 0 6 0;
#X connect 12 0 13 0;
#X connect 12 1 14 0;
#X connect 12 2 15 0;
#X connect 12 3 16 0;
#X connect 12 4 17 0;
#X connect 12 5 18 0;
#X connect 12 6 19 0;
#X connect 12 7 20 0;
#X connect 12 8 21 0;
#X connect 12 9 22 0;
#X connect 12 10 23 0;
#X connect 12 11 24 0;
#X connect 13 0 28 0;
#X connect 14 0 34 0;
#X connect 15 0 28 0;
#X connect 16 0 34 0;
#X connect 17 0 28 0;
#X connect 18 0 34 0;
#X connect 19 0 28 0;
#X connect 20 0 34 0;
#X connect 21 0 28 0;
#X connect 22 0 34 0;
#X connect 23 0 28 0;
#X connect 24 0 34 0;
#X connect 25 0 26 0;
#X connect 27 0 25 0;
#X connect 28 0 30 0;
#X connect 28 0 29 0;
#X connect 30 0 25 0;
#X connect 31 0 4 1;
#X connect 32 0 33 0;
#X connect 34 0 36 0;
#X connect 34 0 35 0;
#X connect 36 0 32 0;
#X connect 37 0 32 0;
