#N canvas 1025 544 1918 488 10;
#X obj 294 2 netreceive 13000;
#X obj 155 40 print tcp;
#X floatatom -80 157 5 0 0 0 - - -, f 5;
#X obj -80 236 line~ 0;
#X obj -134 288 *~;
#X msg -80 196 \$1 2000;
#X obj -186 250 readsf~;
#X obj -114 230 bng 15 250 50 0 empty empty empty 17 7 0 10 -262144
-1 -1;
#X msg -179 221 0;
#X obj -186 157 loadbang;
#X floatatom 82 156 5 0 0 0 - - -, f 5;
#X obj 82 234 line~ 0;
#X obj 26 289 *~;
#X msg 82 195 \$1 2000;
#X obj -24 249 readsf~;
#X obj 48 229 bng 15 250 50 0 empty empty empty 17 7 0 10 -262144 -1
-1;
#X msg -17 220 0;
#X obj -24 156 loadbang;
#X floatatom 244 156 5 0 0 0 - - -, f 5;
#X obj 244 234 line~ 0;
#X obj 188 289 *~;
#X msg 244 195 \$1 2000;
#X obj 138 249 readsf~;
#X obj 210 229 bng 15 250 50 0 empty empty empty 17 7 0 10 -262144
-1 -1;
#X msg 145 220 0;
#X obj 138 156 loadbang;
#X floatatom 404 156 5 0 0 0 - - -, f 5;
#X obj 404 234 line~ 0;
#X obj 348 289 *~;
#X msg 404 195 \$1 2000;
#X obj 298 249 readsf~;
#X obj 370 229 bng 15 250 50 0 empty empty empty 17 7 0 10 -262144
-1 -1;
#X msg 305 220 0;
#X obj 298 156 loadbang;
#X floatatom 564 156 5 0 0 0 - - -, f 5;
#X obj 564 234 line~ 0;
#X obj 489 296 *~;
#X msg 564 195 \$1 2000;
#X obj 457 249 readsf~;
#X obj 529 229 bng 15 250 50 0 empty empty empty 17 7 0 10 -262144
-1 -1;
#X msg 464 220 0;
#X obj 457 156 loadbang;
#X floatatom 723 156 5 0 0 0 - - -, f 5;
#X obj 723 234 line~ 0;
#X obj 667 289 *~;
#X msg 723 195 \$1 2000;
#X obj 617 249 readsf~;
#X obj 689 229 bng 15 250 50 0 empty empty empty 17 7 0 10 -262144
-1 -1;
#X msg 624 220 0;
#X obj 617 156 loadbang;
#X obj 281 32 route 63 60 65 70 61 68;
#X msg -186 196 open Dis.aiff \, 1;
#X msg -24 195 open C.aiff \, 1;
#X msg 138 195 open F.aiff \, 1;
#X msg 299 194 open Ais.aiff \, 1;
#X msg 457 195 open Cis.aiff \, 1;
#X msg 618 195 open Gis.aiff \, 1;
#X obj 814 56 loadbang;
#X obj 820 135 delay 100;
#X msg 821 226 \; pd dsp 1;
#X obj 845 90 bng 15 250 50 0 empty empty empty 17 7 0 10 -262144 -1
-1;
#X obj 278 460 dac~ 1 2;
#X connect 0 0 1 0;
#X connect 0 0 50 0;
#X connect 2 0 5 0;
#X connect 3 0 4 1;
#X connect 4 0 61 1;
#X connect 5 0 3 0;
#X connect 6 0 4 0;
#X connect 6 1 7 0;
#X connect 7 0 51 0;
#X connect 8 0 6 0;
#X connect 9 0 51 0;
#X connect 10 0 13 0;
#X connect 11 0 12 1;
#X connect 12 0 61 1;
#X connect 13 0 11 0;
#X connect 14 0 12 0;
#X connect 14 1 15 0;
#X connect 15 0 52 0;
#X connect 16 0 14 0;
#X connect 17 0 52 0;
#X connect 18 0 21 0;
#X connect 19 0 20 1;
#X connect 20 0 61 1;
#X connect 21 0 19 0;
#X connect 22 0 20 0;
#X connect 22 1 23 0;
#X connect 23 0 53 0;
#X connect 24 0 22 0;
#X connect 25 0 53 0;
#X connect 26 0 29 0;
#X connect 27 0 28 1;
#X connect 28 0 61 1;
#X connect 29 0 27 0;
#X connect 30 0 28 0;
#X connect 30 1 31 0;
#X connect 31 0 54 0;
#X connect 32 0 30 0;
#X connect 33 0 54 0;
#X connect 34 0 37 0;
#X connect 35 0 36 1;
#X connect 36 0 61 1;
#X connect 37 0 35 0;
#X connect 38 0 36 0;
#X connect 38 1 39 0;
#X connect 39 0 55 0;
#X connect 40 0 38 0;
#X connect 41 0 55 0;
#X connect 42 0 45 0;
#X connect 43 0 44 1;
#X connect 44 0 61 1;
#X connect 45 0 43 0;
#X connect 46 0 44 0;
#X connect 46 1 47 0;
#X connect 47 0 56 0;
#X connect 48 0 46 0;
#X connect 49 0 56 0;
#X connect 50 0 2 0;
#X connect 50 1 10 0;
#X connect 50 2 18 0;
#X connect 50 3 26 0;
#X connect 50 4 34 0;
#X connect 50 5 42 0;
#X connect 51 0 6 0;
#X connect 52 0 14 0;
#X connect 53 0 22 0;
#X connect 54 0 30 0;
#X connect 55 0 38 0;
#X connect 56 0 46 0;
#X connect 57 0 58 0;
#X connect 58 0 59 0;
#X connect 60 0 58 0;
