#N canvas 49 557 450 300 10;
#X obj -58 0 inlet;
#X obj -60 106 line~ 0;
#X obj -124 165 *~;
#X obj -124 212 outlet~;
#X msg -60 67 \$1 2000;
#X obj -193 127 readsf~;
#X obj -96 107 bng 15 250 50 0 empty empty empty 17 7 0 10 -262144
-1 -1;
#X msg -226 74 0;
#X obj -193 34 loadbang;
#X msg -193 73 open C.aiff \, 1;
#X connect 0 0 4 0;
#X connect 1 0 2 1;
#X connect 2 0 3 0;
#X connect 4 0 1 0;
#X connect 5 0 2 0;
#X connect 5 1 6 0;
#X connect 6 0 9 0;
#X connect 7 0 5 0;
#X connect 8 0 9 0;
#X connect 9 0 5 0;
