#N canvas 1172 341 748 510 10;
#X obj 7 -2 soundfiler;
#X floatatom 38 28 12 0 0 0 - - -;
#X obj 38 54 s sampleSize;
#X obj 7 86 expr 44100 / $f1;
#X floatatom 37 116 12 0 0 0 - - -;
#X obj 7 139 phasor~;
#X obj 7 186 *~;
#X obj 22 163 r sampleSize;
#X obj 7 261 *~;
#X obj 7 285 outlet~;
#X obj 22 235 inlet~;
#X obj 7 -77 loadbang;
#X obj 7 -52 symbol \$1;
#X obj 7 211 tabread4~ \$1;
#X msg 7 -27 read -resize \$1.aiff \$1;
#X connect 0 0 1 0;
#X connect 0 0 3 0;
#X connect 1 0 2 0;
#X connect 3 0 4 0;
#X connect 3 0 5 0;
#X connect 5 0 6 0;
#X connect 6 0 13 0;
#X connect 7 0 6 1;
#X connect 8 0 9 0;
#X connect 10 0 8 1;
#X connect 11 0 12 0;
#X connect 12 0 14 0;
#X connect 13 0 8 0;
#X connect 14 0 0 0;
