#N canvas 369 457 450 300 10;
#X obj 97 146 readsf~;
#X obj 99 188 dac~;
#X msg 46 112 0;
#X obj 170 85 bng 15 250 50 0 empty empty empty 17 7 0 10 -262144 -1
-1;
#X msg 99 110 open sawtooth440.aiff \, 1;
#X connect 0 0 1 0;
#X connect 0 0 1 1;
#X connect 0 1 3 0;
#X connect 2 0 0 0;
#X connect 3 0 4 0;
#X connect 4 0 0 0;
