#N canvas 77 291 450 300 10;
#X obj -57 1 inlet;
#X obj -60 106 line~ 0;
#X obj -101 170 *~;
#X obj -105 221 outlet~;
#X obj -190 60 osc~ \$1;
#X msg -60 67 \$1 2000;
#X connect 0 0 5 0;
#X connect 1 0 2 1;
#X connect 2 0 3 0;
#X connect 4 0 2 0;
#X connect 5 0 1 0;
