#N canvas 158 313 450 300 10;
#X obj -57 1 inlet;
#X obj -60 106 line~ 0;
#X obj -101 170 *~;
#X obj -105 221 outlet~;
#X msg -60 67 \$1 2000;
#X obj -195 89 readsf~;
#X msg -196 47 open loop/C.aiff \, 1;
#X obj -107 -14 bng 15 250 50 0 empty empty empty 17 7 0 10 -262144
-1 -1;
#X floatatom 2 33 5 0 0 0 - - -;
#X connect 0 0 4 0;
#X connect 0 0 8 0;
#X connect 1 0 2 1;
#X connect 2 0 3 0;
#X connect 4 0 1 0;
#X connect 5 0 2 0;
#X connect 5 0 3 0;
#X connect 5 1 7 0;
#X connect 6 0 5 0;
#X connect 7 0 6 0;
