#N canvas 984 118 528 414 10;
#X obj 32 63 dac~;
#X msg 33 -23 0.1;
#N canvas 0 22 450 300 (subpatch) 0;
#X array Fis 330873 float 2;
#X coords 0 1 330873 -1 200 140 1;
#X restore 161 -15 graph;
#X msg 74 -23 0;
#N canvas 0 0 450 300 (subpatch) 0;
#X array C 254115 float 2;
#X coords 0 1 254115 -1 200 140 1;
#X restore 161 141 graph;
#X obj 27 211 dac~;
#X msg 28 125 0.1;
#X msg 69 125 0;
#X obj 33 15 looper Fis;
#X obj 28 163 looper C;
#X connect 1 0 8 0;
#X connect 3 0 8 0;
#X connect 6 0 9 0;
#X connect 7 0 9 0;
#X connect 8 0 0 0;
#X connect 9 0 5 0;
