#N canvas 1562 341 748 510 10;
#X obj 83 -88 bng 15 250 50 0 empty empty empty 17 7 0 10 -262144 -1
-1;
#X obj 19 -23 soundfiler;
#X floatatom 50 7 12 0 0 0 - - -;
#X obj 50 33 s sampleSize;
#X obj 19 65 expr 44100 / $f1;
#X floatatom 47 95 12 0 0 0 - - -;
#X obj 19 131 phasor~;
#X obj 19 178 *~;
#X obj 34 155 r sampleSize;
#X obj 19 270 *~;
#X obj 19 299 outlet~;
#X obj 33 243 inlet~;
#X obj 20 210 tabread4~ table-Fis;
#X msg 20 -53 read -resize \$1 table-Fis;
#X obj 20 -88 loadbang;
#X connect 0 0 13 0;
#X connect 1 0 2 0;
#X connect 1 0 4 0;
#X connect 2 0 3 0;
#X connect 4 0 5 0;
#X connect 4 0 6 0;
#X connect 6 0 7 0;
#X connect 7 0 12 0;
#X connect 8 0 7 1;
#X connect 9 0 10 0;
#X connect 11 0 9 1;
#X connect 12 0 9 0;
#X connect 13 0 1 0;
#X connect 14 0 13 0;
