#N canvas 890 35 1009 1026 10;
#X obj 369 452 netsend;
#X floatatom 369 482 5 0 0 0 - - -;
#X obj 13 292 bng 15 250 50 0 empty empty empty 17 7 0 10 -262144 -1
-1;
#X msg 168 332 send 63 \$1;
#X msg 246 330 send 60 \$1;
#X msg 317 330 send 65 \$1;
#X msg 384 329 send 70 \$1;
#X msg 459 329 send 61 \$1;
#X msg 534 331 send 68 \$1;
#X msg -23 333 connect 127.0.0.1 13000;
#X obj 166 297 receive Dis;
#X obj 246 292 receive C;
#X obj 319 295 receive F;
#X obj 388 295 receive Ais;
#X obj 467 298 receive Cis;
#X obj 542 299 receive Gis;
#X obj 383 694 netsend;
#X floatatom 383 724 5 0 0 0 - - -;
#X obj 24 530 bng 15 250 50 0 empty empty empty 17 7 0 10 -262144 -1
-1;
#X msg -8 575 connect 127.0.0.1 13001;
#X obj 180 539 receive E;
#X obj 260 534 receive G;
#X obj 333 537 receive D;
#X obj 402 537 receive A;
#X obj 481 540 receive Fis;
#X obj 556 541 receive B;
#X msg -288 -65 \; C 0.4;
#X msg -287 -32 \; C 0;
#X msg -238 -65 \; Cis 0.4;
#X msg -237 -32 \; Cis 0;
#X msg -179 -66 \; D 0.4;
#X msg -178 -33 \; D 0;
#X msg -128 -67 \; Dis 0.4;
#X msg -127 -34 \; Dis 0;
#X msg -66 -65 \; E 0.4;
#X msg -14 -67 \; F 0.4;
#X msg 45 -68 \; Fis 0.4;
#X msg 96 -69 \; G 0.4;
#X msg -65 -32 \; E 0;
#X msg -13 -34 \; F 0;
#X msg 46 -35 \; Fis 0;
#X msg 97 -36 \; G 0;
#X msg 143 -67 \; Gis 0.4;
#X msg 144 -34 \; Gis 0;
#X msg 202 -68 \; A 0.4;
#X msg 203 -35 \; A 0;
#X msg 253 -69 \; Ais 0.4;
#X msg 254 -36 \; Ais 0;
#X msg 315 -67 \; B 0.4;
#X msg 316 -34 \; B 0;
#X msg 182 574 send 64 \$1;
#X msg 260 572 send 67 \$1;
#X msg 333 572 send 62 \$1;
#X msg 398 571 send 69 \$1;
#X msg 473 571 send 66 \$1;
#X msg 548 573 send 71 \$1;
#N canvas 368 524 530 440 instr1a 1;
#X obj -142 46 print tcp;
#X obj -160 70 route 64 67 62 69 66 71;
#X obj -160 21 netreceive 13001;
#X obj 143 115 looper B;
#X obj 74 115 looper Fis;
#X obj 15 115 looper A;
#X obj -161 115 looper E;
#X obj -102 115 looper G;
#X obj -43 115 looper D;
#N canvas 0 22 450 300 (subpatch) 0;
#X array E 46570 float 2;
#X coords 0 1 46570 -1 200 140 1;
#X restore -161 206 graph;
#N canvas 0 22 450 300 (subpatch) 0;
#X array G 40025 float 2;
#X coords 0 1 40025 -1 200 140 1;
#X restore 51 206 graph;
#N canvas 0 22 450 300 (subpatch) 0;
#X array D 45970 float 2;
#X coords 0 1 45970 -1 200 140 1;
#X restore 260 204 graph;
#N canvas 0 22 450 300 (subpatch) 0;
#X array B 34195 float 2;
#X coords 0 1 34195 -1 200 140 1;
#X restore 262 374 graph;
#N canvas 0 22 450 300 (subpatch) 0;
#X array Fis 42985 float 2;
#X coords 0 1 42985 -1 200 140 1;
#X restore 50 374 graph;
#N canvas 0 22 450 300 (subpatch) 0;
#X array A 38376 float 2;
#X coords 0 1 38376 -1 200 140 1;
#X restore -161 373 graph;
#X obj -161 162 dac~ 1;
#X connect 1 0 6 0;
#X connect 1 1 7 0;
#X connect 1 2 8 0;
#X connect 1 3 5 0;
#X connect 1 4 4 0;
#X connect 1 5 3 0;
#X connect 2 0 0 0;
#X connect 2 0 1 0;
#X connect 3 0 15 0;
#X connect 4 0 15 0;
#X connect 5 0 15 0;
#X connect 6 0 15 0;
#X connect 7 0 15 0;
#X connect 8 0 15 0;
#X restore -166 54 pd instr1a;
#N canvas 627 247 666 652 instr2b 1;
#X obj -142 46 print tcp;
#N canvas 0 22 450 300 (subpatch) 0;
#X array Dis 51491 float 2;
#X coords 0 1 51491 -1 200 140 1;
#X restore -161 206 graph;
#N canvas 0 22 450 300 (subpatch) 0;
#X array C 41927 float 2;
#X coords 0 1 41927 -1 200 140 1;
#X restore 51 206 graph;
#N canvas 0 22 450 300 (subpatch) 0;
#X array F 40467 float 2;
#X coords 0 1 40467 -1 200 140 1;
#X restore 260 204 graph;
#N canvas 0 22 450 300 (subpatch) 0;
#X array Gis 37107 float 2;
#X coords 0 1 37107 -1 200 140 1;
#X restore 262 374 graph;
#N canvas 0 22 450 300 (subpatch) 0;
#X array Cis 47933 float 2;
#X coords 0 1 47933 -1 200 140 1;
#X restore 50 374 graph;
#N canvas 0 22 450 300 (subpatch) 0;
#X array Ais 30221 float 2;
#X coords 0 1 30221 -1 200 140 1;
#X restore -161 373 graph;
#X obj -161 115 looper Dis;
#X obj -160 70 route 63 60 65 70 61 68;
#X obj -91 115 looper C;
#X obj -32 115 looper F;
#X obj 26 115 looper Ais;
#X obj 85 115 looper Cis;
#X obj 153 115 looper Gis;
#X obj -161 162 dac~ 2;
#X obj -160 21 netreceive 13000;
#X connect 7 0 14 0;
#X connect 8 0 7 0;
#X connect 8 1 9 0;
#X connect 8 2 10 0;
#X connect 8 3 11 0;
#X connect 8 4 12 0;
#X connect 8 5 13 0;
#X connect 9 0 14 0;
#X connect 10 0 14 0;
#X connect 11 0 14 0;
#X connect 12 0 14 0;
#X connect 13 0 14 0;
#X connect 15 0 0 0;
#X connect 15 0 8 0;
#X restore -165 84 pd instr2b;
#X obj -131 239 loadbang;
#X obj -133 268 delay 100;
#X msg -194 321 \; pd dsp 1;
#X text -293 19 midi table: 60 C 61 Cis/Des 62 D 63 Dis/Es 64 E 65
F 66 Fis/Ges 67 G 68 Gis/As 69 A 70 Ais/Bes 71 B;
#X text 39 292 connect to instr1b;
#X text 47 528 connect to instr1a;
#X msg 206 112 \; Dis const 0;
#X msg 206 155 \; F const 0;
#X msg 123 70 \; C const 0;
#X msg 206 69 \; Cis const 0;
#X msg 123 113 \; D const 0;
#X msg 296 68 \; Fis const 0;
#X msg 379 67 \; G const 0;
#X msg 296 111 \; Gis const 0;
#X msg 379 110 \; A const 0;
#X msg 296 154 \; Ais const 0;
#X msg 379 153 \; B const 0;
#X msg 123 156 \; E const 0;
#X connect 0 0 1 0;
#X connect 2 0 9 0;
#X connect 3 0 0 0;
#X connect 4 0 0 0;
#X connect 5 0 0 0;
#X connect 6 0 0 0;
#X connect 7 0 0 0;
#X connect 8 0 0 0;
#X connect 9 0 0 0;
#X connect 10 0 3 0;
#X connect 11 0 4 0;
#X connect 12 0 5 0;
#X connect 13 0 6 0;
#X connect 14 0 7 0;
#X connect 15 0 8 0;
#X connect 16 0 17 0;
#X connect 18 0 19 0;
#X connect 19 0 16 0;
#X connect 20 0 50 0;
#X connect 21 0 51 0;
#X connect 22 0 52 0;
#X connect 23 0 53 0;
#X connect 24 0 54 0;
#X connect 25 0 55 0;
#X connect 50 0 16 0;
#X connect 51 0 16 0;
#X connect 52 0 16 0;
#X connect 53 0 16 0;
#X connect 54 0 16 0;
#X connect 55 0 16 0;
#X connect 58 0 59 0;
#X connect 59 0 9 0;
#X connect 59 0 19 0;
#X connect 59 0 60 0;
