#N canvas 1075 225 874 614 10;
#X obj 369 452 netsend;
#X floatatom 369 482 5 0 0 0 - - -;
#X obj -22 292 loadbang;
#X msg 168 332 send C \$1;
#X msg 246 330 send D \$1;
#X msg 317 330 send E \$1;
#X msg 384 329 send F# \$1;
#X msg 459 329 send G# \$1;
#X msg 535 332 send A# \$1;
#X obj 246 292 receive D;
#X obj 319 295 receive E;
#X obj 388 295 receive F#;
#X obj 467 298 receive G#;
#X obj 542 299 receive A#;
#X obj 166 297 receive C;
#X obj -30 -92 bng 15 250 50 0 empty empty empty 17 7 0 10 -262144
-1 -1;
#X msg -41 49 \; F# 0;
#X msg -42 87 \; G# 0;
#X msg -40 122 \; A# 0;
#X obj 14 -94 bng 15 250 50 0 empty empty empty 17 7 0 10 -262144 -1
-1;
#X msg 0 -22 \; D 0;
#X msg 4 120 \; A# 0;
#X obj 54 -95 bng 15 250 50 0 empty empty empty 17 7 0 10 -262144 -1
-1;
#X msg 40 -23 \; D 0;
#X msg 43 46 \; F# 0;
#X msg 44 119 \; A# 0;
#X obj 98 -97 bng 15 250 50 0 empty empty empty 17 7 0 10 -262144 -1
-1;
#X msg 84 -25 \; D 0;
#X msg 87 44 \; F# 0;
#X msg 86 82 \; G# 0;
#X obj 140 -92 bng 15 250 50 0 empty empty empty 17 7 0 10 -262144
-1 -1;
#X msg 126 -54 \; C 0;
#X msg 127 13 \; E 0;
#X msg 129 49 \; F# 0;
#X msg 130 122 \; A# 0;
#X obj 184 -94 bng 15 250 50 0 empty empty empty 17 7 0 10 -262144
-1 -1;
#X msg 170 -56 \; C 0;
#X msg 171 11 \; E 0;
#X msg 172 85 \; G# 0;
#X obj 224 -95 bng 15 250 50 0 empty empty empty 17 7 0 10 -262144
-1 -1;
#X msg 210 -57 \; C 0;
#X msg 213 46 \; F# 0;
#X msg 214 119 \; A# 0;
#X obj 268 -97 bng 15 250 50 0 empty empty empty 17 7 0 10 -262144
-1 -1;
#X msg 254 -59 \; C 0;
#X msg 254 -25 \; D 0;
#X msg 258 117 \; A# 0;
#X msg 2 85 \; G# 0;
#X msg 126 -20 \; D 0.1;
#X msg 128 87 \; G# 0.1;
#X msg 256 82 \; G# 0.1;
#X msg -23 333 connect 127.0.0.1 13000;
#X obj 48 272 bng 15 250 50 0 empty empty empty 17 7 0 10 -262144 -1
-1;
#X msg -44 -54 \; C 0;
#X msg -44 -20 \; D 0;
#X msg -43 13 \; E 0;
#X msg 0 -56 \; C 0.6;
#X msg 1 11 \; E 0.6;
#X msg 3 47 \; F# 0.6;
#X msg 42 84 \; G# 0.6;
#X msg 41 10 \; E 0.6;
#X msg 40 -57 \; C 0.6;
#X msg 84 -59 \; C 0.6;
#X msg 85 8 \; E 0.6;
#X msg 88 117 \; A# 0.6;
#X msg 170 -22 \; D 0.6;
#X msg 173 47 \; F# 0.6;
#X msg 174 120 \; A# 0.6;
#X msg 210 -23 \; D 0.6;
#X msg 211 10 \; E 0.6;
#X msg 212 84 \; G# 0.6;
#X msg 255 8 \; E 0.6;
#X msg 257 44 \; F# 0.6;
#X connect 0 0 1 0;
#X connect 2 0 51 0;
#X connect 3 0 0 0;
#X connect 4 0 0 0;
#X connect 5 0 0 0;
#X connect 6 0 0 0;
#X connect 7 0 0 0;
#X connect 8 0 0 0;
#X connect 9 0 4 0;
#X connect 10 0 5 0;
#X connect 11 0 6 0;
#X connect 12 0 7 0;
#X connect 13 0 8 0;
#X connect 14 0 3 0;
#X connect 15 0 53 0;
#X connect 15 0 54 0;
#X connect 15 0 55 0;
#X connect 15 0 16 0;
#X connect 15 0 17 0;
#X connect 15 0 18 0;
#X connect 19 0 56 0;
#X connect 19 0 20 0;
#X connect 19 0 57 0;
#X connect 19 0 58 0;
#X connect 19 0 47 0;
#X connect 19 0 21 0;
#X connect 22 0 61 0;
#X connect 22 0 23 0;
#X connect 22 0 60 0;
#X connect 22 0 24 0;
#X connect 22 0 59 0;
#X connect 22 0 25 0;
#X connect 26 0 62 0;
#X connect 26 0 27 0;
#X connect 26 0 63 0;
#X connect 26 0 28 0;
#X connect 26 0 29 0;
#X connect 26 0 64 0;
#X connect 30 0 31 0;
#X connect 30 0 48 0;
#X connect 30 0 32 0;
#X connect 30 0 33 0;
#X connect 30 0 49 0;
#X connect 30 0 34 0;
#X connect 35 0 36 0;
#X connect 35 0 65 0;
#X connect 35 0 37 0;
#X connect 35 0 66 0;
#X connect 35 0 38 0;
#X connect 35 0 67 0;
#X connect 39 0 40 0;
#X connect 39 0 68 0;
#X connect 39 0 69 0;
#X connect 39 0 41 0;
#X connect 39 0 70 0;
#X connect 39 0 42 0;
#X connect 43 0 44 0;
#X connect 43 0 45 0;
#X connect 43 0 71 0;
#X connect 43 0 72 0;
#X connect 43 0 50 0;
#X connect 43 0 46 0;
#X connect 51 0 0 0;
#X connect 52 0 51 0;
