#N canvas 233 191 924 916 10;
#X obj 98 120 readsf~;
#X obj 23 67 bng 15 250 50 0 empty empty empty 17 7 0 10 -262144 -1
-1;
#X msg 22 92 0;
#X msg 99 65 open C.aiff \, 1;
#X obj 115 187 *~;
#X obj 77 189 *~;
#X obj 80 221 dac~;
#X obj 283 120 readsf~;
#X obj 208 67 bng 15 250 50 0 empty empty empty 17 7 0 10 -262144 -1
-1;
#X msg 207 92 0;
#X obj 300 187 *~;
#X obj 262 189 *~;
#X obj 265 221 dac~;
#X msg 284 65 open Cis.aiff \, 1;
#X obj 489 119 readsf~;
#X obj 414 66 bng 15 250 50 0 empty empty empty 17 7 0 10 -262144 -1
-1;
#X msg 413 91 0;
#X obj 506 186 *~;
#X obj 468 188 *~;
#X obj 471 220 dac~;
#X obj 674 119 readsf~;
#X obj 599 66 bng 15 250 50 0 empty empty empty 17 7 0 10 -262144 -1
-1;
#X msg 598 91 0;
#X obj 691 186 *~;
#X obj 653 188 *~;
#X obj 656 220 dac~;
#X msg 490 64 open D.aiff \, 1;
#X msg 675 64 open Dis.aiff \, 1;
#X obj 98 331 readsf~;
#X obj 23 278 bng 15 250 50 0 empty empty empty 17 7 0 10 -262144 -1
-1;
#X msg 22 303 0;
#X obj 115 398 *~;
#X obj 77 400 *~;
#X obj 80 432 dac~;
#X obj 283 331 readsf~;
#X obj 208 278 bng 15 250 50 0 empty empty empty 17 7 0 10 -262144
-1 -1;
#X msg 207 303 0;
#X obj 300 398 *~;
#X obj 262 400 *~;
#X obj 265 432 dac~;
#X obj 489 330 readsf~;
#X obj 414 277 bng 15 250 50 0 empty empty empty 17 7 0 10 -262144
-1 -1;
#X msg 413 302 0;
#X obj 506 397 *~;
#X obj 468 399 *~;
#X obj 471 431 dac~;
#X obj 674 330 readsf~;
#X obj 599 277 bng 15 250 50 0 empty empty empty 17 7 0 10 -262144
-1 -1;
#X msg 598 302 0;
#X obj 691 397 *~;
#X obj 653 399 *~;
#X obj 656 431 dac~;
#X obj 94 543 readsf~;
#X obj 19 490 bng 15 250 50 0 empty empty empty 17 7 0 10 -262144 -1
-1;
#X msg 18 515 0;
#X obj 111 610 *~;
#X obj 73 612 *~;
#X obj 76 644 dac~;
#X obj 279 543 readsf~;
#X obj 204 490 bng 15 250 50 0 empty empty empty 17 7 0 10 -262144
-1 -1;
#X msg 203 515 0;
#X obj 296 610 *~;
#X obj 258 612 *~;
#X obj 261 644 dac~;
#X obj 485 542 readsf~;
#X obj 410 489 bng 15 250 50 0 empty empty empty 17 7 0 10 -262144
-1 -1;
#X msg 409 514 0;
#X obj 502 609 *~;
#X obj 464 611 *~;
#X obj 467 643 dac~;
#X obj 670 542 readsf~;
#X obj 595 489 bng 15 250 50 0 empty empty empty 17 7 0 10 -262144
-1 -1;
#X msg 594 514 0;
#X obj 687 609 *~;
#X obj 649 611 *~;
#X obj 652 643 dac~;
#X msg 99 276 open E.aiff \, 1;
#X msg 284 276 open F.aiff \, 1;
#X msg 490 275 open Fis.aiff \, 1;
#X msg 675 275 open G.aiff \, 1;
#X msg 95 488 open Gis.aiff \, 1;
#X msg 280 488 open A.aiff \, 1;
#X msg 486 487 open Ais.aiff \, 1;
#X msg 671 487 open B.aiff \, 1;
#X msg 122 150 0.3;
#X msg 307 150 0.3;
#X msg 513 149 0.3;
#X msg 698 149 0.3;
#X msg 122 361 0.3;
#X msg 307 361 0.3;
#X msg 513 360 0.3;
#X msg 698 360 0.3;
#X msg 118 573 0.3;
#X msg 302 573 0.3;
#X msg 508 572 0.3;
#X msg 694 571 0.3;
#X connect 0 0 5 0;
#X connect 0 0 4 0;
#X connect 0 1 1 0;
#X connect 1 0 3 0;
#X connect 1 0 84 0;
#X connect 2 0 0 0;
#X connect 3 0 0 0;
#X connect 4 0 6 1;
#X connect 5 0 6 0;
#X connect 7 0 11 0;
#X connect 7 0 10 0;
#X connect 7 1 8 0;
#X connect 8 0 13 0;
#X connect 8 0 85 0;
#X connect 9 0 7 0;
#X connect 10 0 12 1;
#X connect 11 0 12 0;
#X connect 13 0 7 0;
#X connect 14 0 18 0;
#X connect 14 0 17 0;
#X connect 14 1 15 0;
#X connect 15 0 26 0;
#X connect 15 0 86 0;
#X connect 16 0 14 0;
#X connect 17 0 19 1;
#X connect 18 0 19 0;
#X connect 20 0 24 0;
#X connect 20 0 23 0;
#X connect 20 1 21 0;
#X connect 21 0 27 0;
#X connect 21 0 87 0;
#X connect 22 0 20 0;
#X connect 23 0 25 1;
#X connect 24 0 25 0;
#X connect 26 0 14 0;
#X connect 27 0 20 0;
#X connect 28 0 32 0;
#X connect 28 0 31 0;
#X connect 28 1 29 0;
#X connect 29 0 76 0;
#X connect 29 0 88 0;
#X connect 30 0 28 0;
#X connect 31 0 33 1;
#X connect 32 0 33 0;
#X connect 34 0 38 0;
#X connect 34 0 37 0;
#X connect 34 1 35 0;
#X connect 35 0 77 0;
#X connect 35 0 89 0;
#X connect 36 0 34 0;
#X connect 37 0 39 1;
#X connect 38 0 39 0;
#X connect 40 0 44 0;
#X connect 40 0 43 0;
#X connect 40 1 41 0;
#X connect 41 0 78 0;
#X connect 41 0 90 0;
#X connect 42 0 40 0;
#X connect 43 0 45 1;
#X connect 44 0 45 0;
#X connect 46 0 50 0;
#X connect 46 0 49 0;
#X connect 46 1 47 0;
#X connect 47 0 79 0;
#X connect 47 0 91 0;
#X connect 48 0 46 0;
#X connect 49 0 51 1;
#X connect 50 0 51 0;
#X connect 52 0 56 0;
#X connect 52 0 55 0;
#X connect 52 1 53 0;
#X connect 53 0 80 0;
#X connect 53 0 92 0;
#X connect 54 0 52 0;
#X connect 55 0 57 1;
#X connect 56 0 57 0;
#X connect 58 0 62 0;
#X connect 58 0 61 0;
#X connect 58 1 59 0;
#X connect 59 0 81 0;
#X connect 59 0 93 0;
#X connect 60 0 58 0;
#X connect 61 0 63 1;
#X connect 62 0 63 0;
#X connect 64 0 68 0;
#X connect 64 0 67 0;
#X connect 64 1 65 0;
#X connect 65 0 82 0;
#X connect 65 0 94 0;
#X connect 66 0 64 0;
#X connect 67 0 69 1;
#X connect 68 0 69 0;
#X connect 70 0 74 0;
#X connect 70 0 73 0;
#X connect 70 1 71 0;
#X connect 71 0 83 0;
#X connect 71 0 95 0;
#X connect 72 0 70 0;
#X connect 73 0 75 1;
#X connect 74 0 75 0;
#X connect 76 0 28 0;
#X connect 77 0 34 0;
#X connect 78 0 40 0;
#X connect 79 0 46 0;
#X connect 80 0 52 0;
#X connect 81 0 58 0;
#X connect 82 0 64 0;
#X connect 83 0 70 0;
#X connect 84 0 5 1;
#X connect 84 0 4 1;
#X connect 85 0 11 1;
#X connect 85 0 10 1;
#X connect 86 0 18 1;
#X connect 86 0 17 1;
#X connect 87 0 24 1;
#X connect 87 0 23 1;
#X connect 88 0 32 1;
#X connect 88 0 31 1;
#X connect 89 0 38 1;
#X connect 89 0 37 1;
#X connect 90 0 44 1;
#X connect 90 0 43 1;
#X connect 91 0 50 1;
#X connect 91 0 49 1;
#X connect 92 0 56 1;
#X connect 92 0 55 1;
#X connect 93 0 62 1;
#X connect 93 0 61 1;
#X connect 94 0 68 1;
#X connect 94 0 67 1;
#X connect 95 0 74 1;
#X connect 95 0 73 1;
